# xmcd
#
# Track frame offsets:
#	150
#	16030
#	32950
#	43305
#	58950
#	72587
#	85745
#	101250
#	119950
#	130317
#	144137
#	156140
#
# Disc length: 2280 seconds
#
# Revision: 0
# Processed by: cddbd v1.4PL0 Copyright (c) Steve Scherf et al.
# Submitted via: dBpowerAMP V4.0
#
DISCID=aa08e60c
DTITLE=Dayna Wills - Inside Out Bob's Sister Helen's Kid Vol. 3
DYEAR=1900
DGENRE=Country
TTITLE0=It Was Just Like Takin' Candy From A Baby
TTITLE1=I Gotta Have My Baby Back
TTITLE2=Paper Affair
TTITLE3=Not That I Care
TTITLE4=Texan In A Stetson
TTITLE5=Mean To Me
TTITLE6=Sing Faded Love, Dayna Gayle
TTITLE7=Walkin' In The Shadow Of The Blues
TTITLE8=I Don't Want Your Honey, Honey
TTITLE9=Mississippi Delta Blues
TTITLE10=You Can't Break A Heart Without Killing A Soul
TTITLE11=There'll Be Some Changes Made
EXTD=
EXTT0=
EXTT1=
EXTT2=
EXTT3=
EXTT4=
EXTT5=
EXTT6=
EXTT7=
EXTT8=
EXTT9=
EXTT10=
EXTT11=
PLAYORDER=
